<svg width="84" height="69" viewBox="0 0 84 69" fill="none" xmlns="http://www.w3.org/2000/svg">
<path d="M60.0879 0.689453C63.5684 1.33984 65.7832 2.78125 66.7148 4.99609C67.3477 6.45508 67.8223 9.25 68.1035 12.9414L68.2266 14.4707L69.3867 14.8574C74.3262 16.4746 78.0703 19.6914 80.3906 24.2969C83.2031 29.8867 84.0996 38.4121 82.5 44.3887C80.9355 50.2598 76.9805 54.373 71.2324 56.0781C69.0703 56.7285 66.2227 56.7637 64.3242 56.166C62.6719 55.6562 61.7227 55.1641 60.2988 54.127L59.1738 53.3008L57.3105 53.7578C51.6504 55.1465 44.918 55.9551 37.2891 56.1309L32.666 56.2363L32.2266 57.5195C29.9941 64.1816 24.4746 68.6289 18.4453 68.6289C13.7344 68.6289 9.4453 65.8516 6.08788 60.6309C2.3789 54.8477 0.427727 47.2012 0.462883 38.4824C0.462883 34.1406 0.796867 31.7148 1.74609 28.8848C3.04687 25 5.3496 21.9238 7.95116 20.623C8.35546 20.4121 8.70702 20.2188 8.74218 20.2012C8.77734 20.166 8.61913 19.5684 8.39062 18.8477C8.05663 17.7754 7.98632 17.1777 7.98632 15.1914C7.98632 11.9746 8.53124 9.98828 9.79687 8.61719C10.5 7.87891 11.8711 7.28125 12.9082 7.28125C14.7539 7.28125 17.2676 9.10938 19.6758 12.1855L20.6426 13.416L21.1699 12.4141C21.8379 11.166 23.7891 9.17969 25.4062 8.125C31.8398 3.90625 44.4082 0.671875 55.0078 0.496094C57.75 0.460938 59.1562 0.513672 60.0879 0.689453ZM56.4316 4.41602C56.8711 5.57617 57.3105 8.05469 57.416 10.0234L57.5215 12.1504L59.7363 12.2734C60.9492 12.3438 62.4961 12.502 63.1816 12.625C63.8496 12.7656 64.4297 12.8535 64.4648 12.8184C64.5703 12.7129 64.1309 9.10938 63.8496 7.89648C63.709 7.21094 63.4629 6.45508 63.3398 6.17383C62.707 4.96094 60.1055 4.06445 56.9941 3.95898C56.2559 3.94141 56.2559 3.94141 56.4316 4.41602ZM51.9316 4.20508C49.2422 4.38086 40.8047 5.78711 40.4883 6.10352C40.4531 6.12109 40.541 6.47266 40.6816 6.87695C41.0156 7.82617 41.5781 10.6387 41.8594 12.6777C41.9824 13.5742 42.1406 14.3125 42.2285 14.3125C42.3164 14.3125 42.9844 14.1543 43.7227 13.9785C46.5527 13.2578 50.2969 12.6777 54.5508 12.2734L55.7637 12.168L55.6582 10.3047C55.5352 8.2832 55.043 5.66406 54.6035 4.5918C54.375 4.04688 54.2519 3.94141 53.918 4.01172C53.6894 4.06445 52.793 4.15234 51.9316 4.20508ZM36.4453 7.17578C32.6309 8.35352 28.8867 10.041 27.0059 11.4121L26.1797 12.0273L26.8652 13.416C27.5332 14.7344 29.9062 18.4258 30.2051 18.6016C30.293 18.6543 31.0664 18.373 31.9101 17.9863C34.0723 16.9844 35.7773 16.3164 38.1328 15.543C40.5234 14.752 40.4355 14.9629 39.9082 11.834C39.3633 8.63477 38.8359 6.57812 38.5723 6.57812C38.4492 6.57812 37.5 6.8418 36.4453 7.17578ZM12.5039 11.0605C11.5723 11.7285 11.2031 15.8066 11.8711 17.8984L12.2051 18.9531L14.7539 18.9707C16.1601 18.9883 17.6719 19.0586 18.1113 19.1289L18.9199 19.2695L19.0957 18.5488C19.2891 17.8281 19.2891 17.8105 17.9707 15.9648C16.5644 13.9609 14.4726 11.6582 13.6113 11.1309C12.9785 10.7266 12.9961 10.7266 12.5039 11.0605ZM23.7363 15.4375C23.1035 16.9668 22.418 19.3926 22.1367 21.2207L21.9258 22.5215L22.7695 23.3125L23.6133 24.1211L24.7559 22.8906C25.3887 22.2051 26.5137 21.2207 27.2695 20.6934C28.0254 20.166 28.6406 19.709 28.6406 19.6738C28.6406 19.6562 27.9902 18.6543 27.1816 17.459C26.3906 16.2461 25.5469 14.8574 25.3008 14.3301C24.8789 13.416 24.8613 13.3984 24.5801 13.7676C24.4219 13.9609 24.0351 14.7168 23.7363 15.4375ZM51.2285 14.4004C40.875 15.7539 31.1719 19.2871 26.8301 23.2949C26.1269 23.9453 25.4062 24.7363 25.2305 25.0703L24.9141 25.668L25.793 26.9863C28.3418 30.7832 30.5215 36.6191 31.1543 41.3301L31.3652 43.0352L31.9805 43.1934C32.8945 43.4395 43.3711 43.2109 46.7461 42.8945C54.4277 42.1387 61.1953 40.9082 64.4121 39.6426L65.291 39.3086L65.2734 34.668C65.2734 30.748 64.9043 21.291 64.5703 16.123L64.4648 14.6992L62.8652 14.418C61.9687 14.2598 60.9668 14.1016 60.6328 14.0664C59.3672 13.9082 53.2676 14.1191 51.2285 14.4004ZM66.4336 18.3906C66.4336 18.707 66.4863 19.3926 66.5391 19.8848C66.6445 20.7461 66.6973 20.8164 67.1191 20.8164C67.8398 20.8164 69.5977 21.748 70.6172 22.6621C72.832 24.666 74.4316 27.7949 75.3281 31.8906C75.8379 34.1758 75.7852 39.4844 75.2578 41.6113C73.5879 48.3086 69.334 51.4199 64.8867 49.1699L63.9727 48.7129L63.5684 49.0645C63.3574 49.2578 62.7949 49.6621 62.3379 49.9434L61.4766 50.4707L62.1621 51.0332C64.623 53.0723 67.9277 53.5117 71.2676 52.2461C73.2715 51.5078 74.5371 50.6641 75.9785 49.1172C79.7578 45.127 80.7773 37.7266 78.6328 29.834C77.0156 23.8398 73.3945 19.8145 68.1914 18.25C66.4512 17.7227 66.4336 17.7227 66.4336 18.3906ZM12.2226 22.75C10.3242 23.2246 8.95312 24.0156 7.7578 25.2812C5.1914 28.0234 4.03124 32.1543 4.03124 38.5176C4.03124 49.5566 7.74023 59.4004 13.3828 63.3555C15.0527 64.5332 16.5469 65.0078 18.4453 65.0078C23.4551 64.9902 27.6914 61 29.291 54.7598C30.0644 51.7188 30.0469 45.6016 29.2383 40.8555C28.2012 34.7031 25.1426 28.2168 21.75 24.9297C19.7461 22.9785 18.3398 22.4336 15.3516 22.416C14.1211 22.3984 13.1543 22.5039 12.2226 22.75ZM66.7148 23.4883C66.9258 26.002 67.1367 32.4531 67.1367 36.2324C67.1367 42.4902 66.8379 44.7754 65.8008 46.5859C65.5723 46.9727 65.3789 47.3418 65.3789 47.3945C65.3789 47.6406 66.873 48.0625 67.6816 48.0625C68.8242 48.0625 69.6855 47.6934 70.6172 46.7793C71.6543 45.7598 72.3223 44.6699 72.9375 42.9824C75.5918 35.7402 72.9023 25.2285 67.8223 22.9258C66.6797 22.416 66.627 22.4512 66.7148 23.4883ZM63.3047 41.9102C57.2402 43.8613 42.8789 45.4434 34.1602 45.1094L31.6816 45.0215L31.6641 48.7129V52.4043L33.9844 52.5273C42.1055 52.9492 56.2207 50.9805 60.6152 48.8184C62.0918 48.0801 63.6035 46.7793 64.2539 45.6895C64.8691 44.6348 65.502 41.3828 65.0977 41.3828C65.0273 41.3828 64.2187 41.6289 63.3047 41.9102Z" fill="black"/>
<path d="M14.8241 26.6348C16.1425 26.9512 17.5312 27.8652 18.8495 29.2363C25.5819 36.3555 26.83 53.1953 21.0644 58.9785C19.7636 60.2793 18.4979 60.7891 16.8456 60.666C15.246 60.5605 14.0155 59.9629 12.4862 58.5215C9.77919 55.9551 7.72255 51.7012 6.65028 46.375C6.17567 44.0195 5.99989 38.8867 6.29872 36.6016C7.08974 30.6953 9.72646 26.8457 13.2069 26.5469C13.7167 26.4941 14.4374 26.5293 14.8241 26.6348ZM11.6249 28.9727C10.2362 29.9394 9.07607 32.1191 8.37294 35.125C7.86317 37.3223 7.82802 42.8945 8.32021 45.5137C8.82997 48.291 9.58583 50.6113 10.7108 52.8965C14.8944 61.3516 20.6073 60.8066 22.5058 51.7539C22.9452 49.5742 23.0331 45.4082 22.6815 42.9648C21.9081 37.5332 19.9042 32.8047 17.3202 30.2207C15.8612 28.7617 14.9999 28.3574 13.5058 28.4277C12.5565 28.4629 12.205 28.5684 11.6249 28.9727Z" fill="black"/>
<path d="M15.0176 37.7793C16.916 38.7988 18.1113 41.3125 18.1113 44.3008C18.1113 47.4297 16.793 49.4688 14.7539 49.4688C12.1699 49.4688 10.1836 46.0762 10.3945 42.0332C10.4824 40.2754 11.0977 38.834 12.0469 38.0957C12.8379 37.5156 14.2266 37.3574 15.0176 37.7793ZM13.0137 39.6953C11.7832 40.9961 11.8711 44.459 13.1719 46.4981C14.1387 47.9746 15.1582 48.0977 15.8438 46.7793C16.1953 46.1465 16.248 45.7773 16.248 44.1953C16.248 42.5606 16.1953 42.2266 15.7734 41.3301C15.2285 40.1524 14.3672 39.2735 13.8047 39.2735C13.5762 39.2735 13.2246 39.4668 13.0137 39.6953Z" fill="black"/>
</svg>
